<svg width="20" height="19" viewBox="0 0 20 19" fill="none" xmlns="http://www.w3.org/2000/svg">
<rect width="20" height="19" fill="#F5F5F5"/>
<g filter="url(#filter0_d_0_1)">
<rect x="-940" y="-56" width="1245" height="2028" fill="#151718"/>
<rect x="-939.5" y="-55.5" width="1244" height="2027" stroke="black"/>
</g>
<path d="M15.646 5L15.9573 2.97674C16.1322 1.8395 17.1107 1 18.2614 1M15.646 5L14.6527 11.4562C14.4276 12.9197 13.1683 14 11.6876 14H4.66788C3.26179 14 2.04435 13.0234 1.73932 11.6508L1.07266 8.65079C0.656314 6.77725 2.08197 5 4.00122 5H15.646ZM12.7614 16.75C12.7614 17.1642 12.4256 17.5 12.0114 17.5C11.5972 17.5 11.2614 17.1642 11.2614 16.75C11.2614 16.3358 11.5972 16 12.0114 16C12.4256 16 12.7614 16.3358 12.7614 16.75ZM4.76137 16.75C4.76137 17.1642 4.42558 17.5 4.01137 17.5C3.59716 17.5 3.26137 17.1642 3.26137 16.75C3.26137 16.3358 3.59716 16 4.01137 16C4.42558 16 4.76137 16.3358 4.76137 16.75Z" stroke="white" stroke-width="1.5" stroke-linecap="round" stroke-linejoin="round"/>
<defs>
<filter id="filter0_d_0_1" x="-944" y="-56" width="1253" height="2036" filterUnits="userSpaceOnUse" color-interpolation-filters="sRGB">
<feFlood flood-opacity="0" result="BackgroundImageFix"/>
<feColorMatrix in="SourceAlpha" type="matrix" values="0 0 0 0 0 0 0 0 0 0 0 0 0 0 0 0 0 0 127 0" result="hardAlpha"/>
<feOffset dy="4"/>
<feGaussianBlur stdDeviation="2"/>
<feComposite in2="hardAlpha" operator="out"/>
<feColorMatrix type="matrix" values="0 0 0 0 0 0 0 0 0 0 0 0 0 0 0 0 0 0 0.25 0"/>
<feBlend mode="normal" in2="BackgroundImageFix" result="effect1_dropShadow_0_1"/>
<feBlend mode="normal" in="SourceGraphic" in2="effect1_dropShadow_0_1" result="shape"/>
</filter>
</defs>
</svg>
